<?xml version="1.0" standalone="no"?>
<!DOCTYPE svg PUBLIC "-//W3C//DTD SVG 20010904//EN"
 "http://www.w3.org/TR/2001/REC-SVG-20010904/DTD/svg10.dtd">
<svg version="1.0" xmlns="http://www.w3.org/2000/svg"
 width="700.000000pt" height="700.000000pt" viewBox="0 0 700.000000 700.000000"
 preserveAspectRatio="xMidYMid meet">
<metadata>
Created by potrace 1.11, written by Peter Selinger 2001-2013
</metadata>
<g transform="translate(0.000000,700.000000) scale(0.100000,-0.100000)"
fill="#000000" stroke="none">
<path d="M3105 6955 c-270 -73 -431 -130 -683 -246 -594 -271 -1110 -674
-1521 -1188 -77 -97 -291 -401 -291 -414 0 -2 -23 -42 -51 -88 -51 -84 -193
-363 -219 -429 -7 -19 -19 -48 -26 -65 -82 -187 -199 -568 -229 -745 -3 -19
-10 -54 -16 -78 -5 -24 -11 -60 -14 -80 -3 -20 -7 -46 -9 -57 -4 -19 -11 -76
-21 -160 -15 -127 -20 -242 -20 -445 1 -211 4 -290 20 -455 14 -134 76 -451
118 -600 l35 -120 -2 245 c-1 212 9 433 19 451 2 3 6 27 10 55 3 27 10 74 15
104 5 30 12 71 15 90 24 144 116 441 192 625 97 231 285 561 405 710 114 141
171 210 208 249 66 71 249 251 259 254 5 2 -22 -57 -58 -130 -194 -383 -344
-811 -440 -1253 -30 -140 -48 -236 -66 -360 -4 -22 -8 -47 -10 -55 -2 -8 -7
-42 -10 -75 -3 -33 -8 -76 -10 -95 -2 -19 -7 -64 -10 -100 -4 -36 -8 -79 -10
-95 -2 -17 -7 -104 -10 -194 l-7 -164 38 23 c50 30 88 51 144 82 25 14 116 66
202 117 86 50 160 91 164 91 4 0 15 6 23 14 9 7 41 27 71 43 113 62 270 155
275 162 2 5 -7 33 -22 62 -87 182 -189 492 -232 714 -6 28 -13 61 -16 75 -2
14 -7 43 -10 65 -3 22 -7 50 -9 62 -3 12 -7 54 -11 95 -3 40 -9 87 -11 103 -7
41 -7 372 0 465 5 68 23 224 30 260 1 8 6 36 10 61 7 40 16 54 59 91 354 302
858 555 1327 666 195 47 251 57 418 74 l112 11 1 41 c2 182 1 1557 -2 1560 -2
2 -58 -11 -124 -29z"/>
<path d="M3935 6922 c72 -38 162 -88 200 -112 39 -23 86 -52 105 -63 19 -12
37 -24 40 -27 3 -4 28 -21 55 -40 170 -114 467 -382 605 -547 239 -286 370
-495 536 -858 118 -259 217 -650 252 -990 9 -94 9 -489 -1 -595 -20 -219 -63
-437 -137 -683 -17 -59 -104 -284 -139 -360 l-30 -67 22 -14 c25 -16 500 -291
567 -328 42 -24 128 -73 615 -356 l190 -110 13 36 c17 50 89 345 98 407 5 28
9 52 9 55 1 3 5 25 9 50 5 25 10 54 12 65 2 10 6 49 10 85 3 36 8 68 10 71 16
26 24 553 11 709 -12 147 -22 240 -32 305 -3 17 -7 41 -9 55 -114 732 -454
1464 -947 2040 -102 119 -355 370 -473 469 -366 308 -779 549 -1231 720 -112
42 -459 151 -480 151 -6 0 49 -31 120 -68z"/>
<path d="M3780 5912 c0 -416 3 -529 13 -529 21 0 141 -13 167 -18 14 -2 54 -9
90 -15 103 -16 118 -19 250 -51 336 -82 649 -213 960 -402 88 -54 252 -171
325 -232 83 -71 91 -74 58 -24 -34 53 -154 230 -165 244 -4 6 -40 53 -79 105
-61 80 -191 243 -209 260 -3 3 -32 37 -65 75 -57 68 -354 368 -465 471 -137
126 -469 384 -640 495 -129 84 -231 149 -235 149 -3 0 -5 -238 -5 -528z"/>
<path d="M1775 2049 c-38 -23 -90 -52 -115 -66 -25 -14 -144 -82 -265 -151
-121 -69 -236 -134 -255 -145 -19 -10 -60 -33 -90 -51 -30 -17 -68 -39 -85
-48 -406 -231 -495 -283 -493 -289 16 -44 363 -355 518 -464 30 -22 57 -42 60
-46 10 -12 247 -167 342 -222 53 -32 156 -87 230 -122 73 -36 140 -70 149 -75
83 -45 443 -174 629 -225 88 -24 337 -78 412 -90 69 -11 235 -31 358 -44 84
-9 647 -7 705 3 17 2 62 7 100 11 39 3 77 8 85 10 8 2 36 6 61 9 64 8 240 42
324 61 39 9 78 18 87 20 118 24 438 133 640 219 21 9 40 16 43 17 17 1 370
188 460 243 178 110 388 261 520 375 151 130 368 334 300 283 -131 -99 -426
-256 -650 -345 -231 -92 -559 -180 -750 -202 -27 -3 -61 -8 -75 -11 -145 -26
-715 -26 -835 2 -11 2 -36 6 -55 8 -291 35 -674 149 -975 292 -160 75 -436
236 -514 300 -9 7 -68 52 -131 101 -190 146 -468 434 -603 626 -23 31 -46 57
-51 57 -6 0 -42 -19 -81 -41z"/>
<path d="M5075 2008 c-353 -481 -871 -880 -1425 -1095 -63 -25 -117 -47 -120
-50 -5 -5 171 4 265 13 111 10 161 16 175 19 8 2 40 7 70 10 30 3 66 8 80 10
14 2 45 7 70 10 25 4 65 11 90 16 25 6 62 13 83 16 31 4 237 49 307 67 8 2 53
14 100 26 349 88 809 265 1149 442 75 39 137 72 139 73 4 3 -64 44 -188 113
-25 14 -99 57 -165 95 -66 39 -134 77 -150 86 -24 13 -187 106 -273 156 -99
58 -131 75 -138 75 -5 -1 -36 -37 -69 -82z"/>
</g>
</svg>
