<svg enable-background="new 0 0 68.7 75" fill="#fff" viewBox="0 0 68.7 75" xmlns="http://www.w3.org/2000/svg"><path d="m3.1 31.3h50v-28.2h-50zm51.6 3.1h-53.1c-.9 0-1.6-.7-1.6-1.6v-31.2c0-.9.7-1.6 1.6-1.6h53.1c.9 0 1.6.7 1.6 1.6v31.3c0 .8-.7 1.5-1.6 1.5z"/><path d="m9.4 21.9h37.5v-12.5h-37.5zm39 3.1h-40.6c-.9 0-1.6-.7-1.6-1.6v-15.6c0-.9.7-1.6 1.6-1.6h40.6c.9 0 1.6.7 1.6 1.6v15.6c0 .9-.7 1.6-1.6 1.6z"/><path d="m9.4 71.9h37.5v-37.5h-37.5zm39 3.1h-40.6c-.9 0-1.6-.7-1.6-1.6v-40.6c0-.9.7-1.6 1.6-1.6h40.6c.9 0 1.6.7 1.6 1.6v40.6c0 .9-.7 1.6-1.6 1.6z"/><path d="m20.3 23.4c-.9 0-1.6-.7-1.6-1.6v-3.1c0-.9.7-1.6 1.6-1.6s1.6.7 1.6 1.6v3.1c0 .9-.7 1.6-1.6 1.6z"/><path d="m61.1 71.9h-.4c-4.2 0-7.6-3.4-7.6-7.6v-17.4c0-1.7-1.4-3.1-3.1-3.1-.9 0-1.6-.7-1.6-1.6s.7-1.6 1.6-1.6c3.4 0 6.3 2.8 6.3 6.3v17.4c0 2.5 2 4.5 4.5 4.5h.4c2.5 0 4.5-2 4.5-4.5v-41.8l-4.9-4.9c-.6-.6-.6-1.6 0-2.2s1.6-.6 2.2 0l5.3 5.3c.3.3.5.7.5 1.1v42.4c-.1 4.2-3.5 7.7-7.7 7.7z"/></svg>