<svg enable-background="new 0 0 62.2 32.2" fill="#fff" viewBox="0 0 62.2 32.2" xmlns="http://www.w3.org/2000/svg"><path d="m38.3 24.1h-14.9c-.6 0-1.1.5-1.1 1.1s.5 1.1 1.1 1.1h14.9c.6 0 1.1-.5 1.1-1.1s-.5-1.1-1.1-1.1z"/><path d="m3.6 10.5 1.9-7.6v-.1c.1-.3.3-.4.6-.4h9v7.9h-9.5c-.7-.2-1.4 0-2 .2zm34.6-4.4 3.8 4h-24.6v-7.8h11.8c3.4 0 6.7 1.4 9 3.8zm23.9 15.9-.8-2.8c-1.5-5.5-10.4-9.2-15.7-9.2h-.5s0-.1-.1-.1l-5.3-5.4c-2.8-2.9-6.7-4.5-10.6-4.6l-22.9.1c-1.4 0-2.6 1-2.8 2.3l-2.8 10.9c-.4.7-.6 1.6-.6 2.4v9.4c0 .6.5 1.1 1.1 1.1h1.9c.6 0 1.1-.5 1.1-1.1s-.5-1.1-1.1-1.1h-.7v-8.1l.4-1.8c.6-1 1.6-1.6 2.9-1.6h40c4.6 0 12.4 3.1 13.6 7.5l.8 2.8c.1.3 0 .7-.1 1s-.5.4-.9.4h-.1c-.6 0-1.1.5-1.1 1.1s.5 1.1 1.1 1.1h.1c1.1 0 2-.4 2.6-1.4.6-.8.8-1.8.5-2.9z"/><path d="m13.3 30c-2.2 0-3.9-1.7-3.9-3.9s1.7-3.9 3.9-3.9 3.9 1.7 3.9 3.9c0 2.1-1.8 3.9-3.9 3.9zm0-10.1c-3.4 0-6.1 2.8-6.1 6.1s2.8 6.1 6.1 6.1 6.1-2.8 6.1-6.1c0-3.4-2.8-6.1-6.1-6.1z"/><path d="m48.4 30c-2.2 0-3.9-1.7-3.9-3.9s1.7-3.9 3.9-3.9 3.9 1.7 3.9 3.9c.1 2.1-1.7 3.9-3.9 3.9zm0-10.1c-3.4 0-6.1 2.8-6.1 6.1s2.8 6.1 6.1 6.1 6.1-2.8 6.1-6.1c.1-3.4-2.6-6.1-6.1-6.1z"/></svg>