<svg enable-background="new 0 0 70.3 63.3" fill="#fff" viewBox="0 0 70.3 63.3" xmlns="http://www.w3.org/2000/svg"><path d="m32.5 27c0-1.5 1.2-2.6 2.6-2.6s2.6 1.2 2.6 2.6c0 1.5-1.2 2.6-2.6 2.6s-2.6-1.2-2.6-2.6zm5 10.5c.1 0 .2 0 .3-.1.3-.2.4-.5.2-.8l-2.7-5c1.1 0 2.1-.5 2.9-1.2h6.8c.3 0 .6-.3.6-.6s-.3-.6-.6-.6h-5.8c.4-.7.6-1.5.6-2.3 0-.6-.1-1.1-.3-1.6l3.5-5.1c.2-.3.1-.6-.1-.8-.3-.2-.6-.1-.8.1l-3.2 4.6c-.6-.8-1.5-1.4-2.5-1.7l-3.1-5.8c-.2-.3-.5-.4-.8-.2s-.4.5-.2.8l2.7 5c-1.1 0-2.1.5-2.9 1.2h-6.7c-.3 0-.6.3-.6.6s.3.6.6.6h5.8c-.4.7-.6 1.5-.6 2.3 0 .6.1 1.1.3 1.6l-3.5 5.1c-.2.3-.1.6.1.8.1.1.2.1.3.1.2 0 .4-.1.5-.3l3.2-4.6c.6.8 1.5 1.4 2.5 1.7l3.1 5.8c0 .3.2.4.4.4zm30.5 14.1h-5.9v2.3h-1.2v-9.4h1.2v2.3h5.9zm-8.2 2.3h-1.2v-2.3h-19.9l3.5 2.3h1.2c1.3 0 2.3 1.1 2.3 2.3s-1.1 2.3-2.3 2.3h-31.7v2.3h-1.2v-9.4h1.2v2.3h21.1l-3.5-2.3h-2.3c-1.3 0-2.3-1.1-2.3-2.3 0-1.3 1.1-2.3 2.3-2.3h31.6v-2.3h1.2zm-50.4 7h-1.2v-2.3h-5.9v-4.7h5.9v-2.3h1.2zm21.1-19.5c1.5.5 3.1.7 4.7.7s3.2-.3 4.7-.7v3.1h-9.4zm-8.5-14.4c0-7.3 5.9-13.2 13.2-13.2s13.1 5.9 13.1 13.2-5.9 13.2-13.2 13.2-13.1-6-13.1-13.2zm8.5-17.6h9.4v3.1c-1.5-.5-3.1-.7-4.7-.7s-3.2.3-4.7.7zm-2.4-4.7h7v-1.2h-6.1l1.2-1.2h9.8l2.1 2.1v2.6h-14zm36.4 39.8c0-1.3-1.1-2.3-2.3-2.3h-3.5c-1.3 0-2.3 1.1-2.3 2.3h-14.2v-4.1c4.9-2.5 8.2-7.6 8.2-13.5s-3.3-11-8.2-13.5v-4h2.3v-5.9l-3.5-3.5h-11.7l-3.5 3.5v5.9h2.3v4.1c-4.9 2.5-8.2 7.6-8.2 13.5s3.3 11 8.2 13.5v4.1h-1.1c-2.6 0-4.7 2.1-4.7 4.7 0 .9.3 1.7.7 2.3h-8.9c0-1.3-1.1-2.3-2.3-2.3h-3.6c-1.3 0-2.3 1.1-2.3 2.3h-5.9v9.4h5.9c0 1.3 1.1 2.3 2.3 2.3h3.5c1.3 0 2.3-1.1 2.3-2.3h29.3c2.6 0 4.7-2.1 4.7-4.7 0-.9-.3-1.7-.7-2.3h8.9c0 1.3 1.1 2.3 2.3 2.3h3.5c1.3 0 2.3-1.1 2.3-2.3h5.9v-9.4h-5.7z"/></svg>