<svg enable-background="new 0 0 67.5 67.5" fill="#fff" viewBox="0 0 67.5 67.5" xmlns="http://www.w3.org/2000/svg"><path d="m11.3 32.1c-5.4 0-9.7-4.4-9.7-9.7 0-1.3.3-2.6.8-3.8v-.1l.1-.1c.2-.4.4-.8.7-1.2l8.1-14.5 8.2 14.3c.2.4.5.8.7 1.2v.1l.1.1v.1c.5 1.2.8 2.5.8 3.8 0 5.4-4.4 9.8-9.8 9.8zm10.6-14c0-.1-.1-.3-.1-.4l-.2-.3c-.2-.5-.5-.9-.7-1.3l-8.9-15.7c-.1-.2-.4-.4-.7-.4s-.6.2-.7.4l-8.8 15.8c-.3.4-.5.9-.7 1.3l-.2.3c-.1.1-.1.2-.1.3-.5 1.4-.8 2.8-.8 4.2 0 6.3 5.1 11.3 11.3 11.3s11.3-5.1 11.3-11.3c.1-1.4-.2-2.8-.7-4.2z"/><path d="m14.5 27.1c-.9.6-2 1-3.2 1-1 0-2-.3-2.9-.8s-1.7-1.3-2.2-2.3c-.5-.9-.7-2-.6-3.1 0-.3-.2-.6-.6-.6-.3 0-.6.2-.6.6-.1 1.3.2 2.5.8 3.7s1.5 2.1 2.7 2.8c1.1.6 2.3.9 3.5.9 1.4 0 2.7-.4 3.9-1.2.3-.2.4-.6.2-.8-.3-.3-.7-.4-1-.2z"/><path d="m56.1 32.1c-5.4 0-9.7-4.4-9.7-9.7 0-1.3.3-2.6.8-3.8v-.1l.1-.1c.2-.4.4-.8.7-1.2l8.1-14.5 8.2 14.3c.2.4.5.8.7 1.2v.1l.1.1v.1c.5 1.2.8 2.5.8 3.8 0 5.4-4.4 9.8-9.8 9.8zm10.6-14c0-.1-.1-.3-.1-.4l-.2-.3c-.2-.5-.5-.9-.7-1.3l-8.8-15.7c-.2-.2-.5-.4-.8-.4s-.6.2-.7.4l-8.8 15.8c-.3.4-.5.9-.7 1.3l-.2.3c-.1.1-.1.2-.1.3-.5 1.3-.8 2.8-.8 4.2 0 6.3 5.1 11.3 11.3 11.3s11.3-5.1 11.3-11.3c.1-1.4-.2-2.8-.7-4.2z"/><path d="m59.3 27.1c-.9.6-2 1-3.2 1-1 0-2-.3-2.9-.8s-1.7-1.3-2.2-2.3c-.5-.9-.7-2-.6-3.1 0-.3-.2-.6-.6-.6-.3 0-.6.2-.6.6-.1 1.3.2 2.5.8 3.7s1.5 2.1 2.7 2.8c1.1.6 2.3.9 3.5.9 1.4 0 2.7-.4 3.9-1.2.3-.2.4-.6.2-.8-.3-.3-.7-.4-1-.2z"/><path d="m33.7 65.9c-5.4 0-9.7-4.4-9.7-9.7 0-1.3.3-2.6.8-3.8v-.1l.1-.1c.2-.4.4-.8.7-1.2l8.1-14.5 8.1 14.5c.2.4.5.8.7 1.2l.1.1v.1c.5 1.2.8 2.5.8 3.8.1 5.3-4.3 9.7-9.7 9.7zm10.4-14.3-.1-.3c-.2-.5-.5-.9-.7-1.3l-8.8-15.8c-.1-.3-.4-.4-.7-.4s-.6.2-.8.4l-8.8 15.8c-.3.4-.5.9-.7 1.3l-.2.3c-.1.1-.1.2-.1.3-.5 1.3-.8 2.8-.8 4.2 0 6.3 5.1 11.3 11.3 11.3s11.3-5.1 11.3-11.3c0-1.5-.3-2.9-.8-4.2.1-.1 0-.2-.1-.3z"/><path d="m36.9 60.9c-.9.6-2 1-3.2 1-1 0-2-.3-2.9-.8s-1.7-1.3-2.2-2.3c-.5-.9-.7-2-.6-3.1 0-.3-.2-.6-.6-.6-.3 0-.6.2-.6.6-.1 1.3.2 2.6.8 3.7.6 1.2 1.5 2.1 2.7 2.8 1.1.6 2.3.9 3.5.9 1.4 0 2.7-.4 3.9-1.2.3-.2.4-.6.2-.8-.3-.3-.7-.4-1-.2z"/></svg>