<svg enable-background="new 0 0 62.4 44.6" fill="#fff" viewBox="0 0 62.4 44.6" xmlns="http://www.w3.org/2000/svg"><path d="m31.4 15.9c-3.5 0-6.4 2.9-6.4 6.4s2.9 6.4 6.4 6.4 6.4-2.9 6.4-6.4-2.9-6.4-6.4-6.4zm0 15c-4.7 0-8.6-3.9-8.6-8.6s3.9-8.6 8.6-8.6 8.6 3.9 8.6 8.6-3.9 8.6-8.6 8.6z"/><path d="m34.8 23.2c-.6 0-1.1-.5-1.1-1.1 0-1.3-1-2.3-2.3-2.3-.7 0-1.2.2-1.6.8-.4.4-1.1.5-1.6.1-.4-.4-.5-1.1-.1-1.6.8-.9 2.1-1.5 3.3-1.5 2.5 0 4.5 2 4.5 4.5 0 .7-.5 1.1-1.1 1.1z"/><path d="m42.1 34.1c-.3 0-.6-.1-.8-.3-.4-.4-.4-1.1 0-1.6 5.5-5.5 5.5-14.4 0-19.9-.4-.5-.4-1.1 0-1.6.4-.4 1.1-.4 1.6 0 6.4 6.4 6.4 16.7 0 23.1-.2.2-.5.3-.8.3z"/><path d="m47.3 39.3c-.3 0-.6-.1-.8-.3-.5-.4-.5-1.1 0-1.6 8.3-8.3 8.3-21.9 0-30.3-.5-.4-.5-1.1 0-1.5.4-.5 1.1-.5 1.6 0 9.3 9.1 9.3 24.1.1 33.4-.3.2-.6.3-.9.3z"/><path d="m52.5 44.6c-.3 0-.6-.1-.8-.3-.5-.4-.5-1.1 0-1.6 11.3-11.2 11.3-29.5 0-40.8-.5-.4-.5-1.1 0-1.6.4-.5 1.1-.5 1.6 0 12.1 12.1 12.1 31.9 0 43.9-.2.2-.5.4-.8.4z"/><path d="m20.4 34.1c-.3 0-.6-.1-.8-.3-6.4-6.4-6.4-16.7 0-23.1.4-.4 1.1-.4 1.6 0 .4.4.4 1.1 0 1.6-5.5 5.5-5.5 14.4 0 19.9.4.5.4 1.1 0 1.6-.2.2-.5.3-.8.3z"/><path d="m15.2 39.3c-.3 0-.6-.1-.8-.3-9.2-9.3-9.2-24.3 0-33.5.4-.4 1.1-.4 1.6 0 .4.5.4 1.1 0 1.6-8.3 8.3-8.3 21.9 0 30.3.4.5.4 1.1 0 1.6-.2.2-.5.3-.8.3z"/><path d="m9.9 44.6c-.3 0-.6-.1-.8-.3-12.1-12.2-12.1-31.9 0-44 .4-.5 1.1-.5 1.6 0 .4.4.4 1.1 0 1.6-11.3 11.3-11.3 29.6 0 40.8.4.4.4 1.1 0 1.6-.2.1-.5.3-.8.3z"/></svg>