<?xml version="1.0" encoding="utf-8"?>
<!-- Generator: Adobe Illustrator 19.0.0, SVG Export Plug-In . SVG Version: 6.00 Build 0)  -->
<svg version="1.1" id="Layer_1" xmlns="http://www.w3.org/2000/svg" xmlns:xlink="http://www.w3.org/1999/xlink" x="0px" y="0px"
	 viewBox="0 0 62.2 32.2" style="enable-background:new 0 0 62.2 32.2;fill: #fff;" xml:space="preserve">
<g>
	<path d="M38.3,24.1H23.4c-0.6,0-1.1,0.5-1.1,1.1c0,0.6,0.5,1.1,1.1,1.1h14.9c0.6,0,1.1-0.5,1.1-1.1C39.4,24.6,38.9,24.1,38.3,24.1z
		"/>
	<path d="M3.6,10.5l1.9-7.6c0,0,0-0.1,0-0.1c0.1-0.3,0.3-0.4,0.6-0.4h9l0,7.9H5.6C4.9,10.1,4.2,10.3,3.6,10.5z M38.2,6.1l3.8,4H17.4
		V2.3h11.8C32.6,2.3,35.9,3.7,38.2,6.1z M62.1,22l-0.8-2.8c-1.5-5.5-10.4-9.2-15.7-9.2h-0.5c0,0,0-0.1-0.1-0.1l-5.3-5.4
		c-2.8-2.9-6.7-4.5-10.6-4.6L6.2,0C4.8,0,3.6,1,3.4,2.3L0.6,13.2C0.2,13.9,0,14.8,0,15.6V25c0,0.6,0.5,1.1,1.1,1.1H3
		c0.6,0,1.1-0.5,1.1-1.1c0-0.6-0.5-1.1-1.1-1.1H2.3v-8.1L2.7,14c0.6-1,1.6-1.6,2.9-1.6h40c4.6,0,12.4,3.1,13.6,7.5l0.8,2.8
		c0.1,0.3,0,0.7-0.1,1c-0.1,0.3-0.5,0.4-0.9,0.4h-0.1c-0.6,0-1.1,0.5-1.1,1.1c0,0.6,0.5,1.1,1.1,1.1h0.1c1.1,0,2-0.4,2.6-1.4
		C62.2,24.1,62.4,23.1,62.1,22z"/>
	<path d="M13.3,30c-2.2,0-3.9-1.7-3.9-3.9c0-2.2,1.7-3.9,3.9-3.9c2.2,0,3.9,1.7,3.9,3.9C17.2,28.2,15.4,30,13.3,30z M13.3,19.9
		c-3.4,0-6.1,2.8-6.1,6.1s2.8,6.1,6.1,6.1s6.1-2.8,6.1-6.1C19.4,22.6,16.6,19.9,13.3,19.9z"/>
	<path d="M48.4,30c-2.2,0-3.9-1.7-3.9-3.9c0-2.2,1.7-3.9,3.9-3.9c2.2,0,3.9,1.7,3.9,3.9C52.4,28.2,50.6,30,48.4,30z M48.4,19.9
		c-3.4,0-6.1,2.8-6.1,6.1s2.8,6.1,6.1,6.1s6.1-2.8,6.1-6.1C54.6,22.6,51.9,19.9,48.4,19.9z"/>
</g>
</svg>
