<?xml version="1.0" encoding="utf-8"?>
<!-- Generator: Adobe Illustrator 19.0.0, SVG Export Plug-In . SVG Version: 6.00 Build 0)  -->
<svg version="1.1" id="Layer_1" xmlns="http://www.w3.org/2000/svg" xmlns:xlink="http://www.w3.org/1999/xlink" x="0px" y="0px"
	 viewBox="0 0 67.5 67.5" style="enable-background:new 0 0 67.5 67.5;fill: #fff;" xml:space="preserve">
<g>
	<path d="M11.3,32.1c-5.4,0-9.7-4.4-9.7-9.7c0-1.3,0.3-2.6,0.8-3.8c0,0,0-0.1,0-0.1l0.1-0.1c0,0,0,0,0,0c0.2-0.4,0.4-0.8,0.7-1.2
		c0,0,0,0,0,0l8.1-14.5L19.5,17c0,0,0,0,0,0c0.2,0.4,0.5,0.8,0.7,1.2c0,0,0,0,0,0.1l0.1,0.1c0,0,0,0.1,0,0.1
		c0.5,1.2,0.8,2.5,0.8,3.8C21.1,27.7,16.7,32.1,11.3,32.1z M21.9,18.1c0-0.1-0.1-0.3-0.1-0.4l-0.2-0.3c-0.2-0.5-0.5-0.9-0.7-1.3
		L12,0.4C11.9,0.2,11.6,0,11.3,0c-0.3,0-0.6,0.2-0.7,0.4L1.8,16.2c-0.3,0.4-0.5,0.9-0.7,1.3l-0.2,0.3c-0.1,0.1-0.1,0.2-0.1,0.3
		C0.3,19.5,0,20.9,0,22.3c0,6.3,5.1,11.3,11.3,11.3s11.3-5.1,11.3-11.3C22.7,20.9,22.4,19.5,21.9,18.1z"/>
	<path d="M14.5,27.1c-0.9,0.6-2,1-3.2,1c-1,0-2-0.3-2.9-0.8c-0.9-0.5-1.7-1.3-2.2-2.3c-0.5-0.9-0.7-2-0.6-3.1c0-0.3-0.2-0.6-0.6-0.6
		c-0.3,0-0.6,0.2-0.6,0.6c-0.1,1.3,0.2,2.5,0.8,3.7c0.6,1.2,1.5,2.1,2.7,2.8c1.1,0.6,2.3,0.9,3.5,0.9c1.4,0,2.7-0.4,3.9-1.2
		c0.3-0.2,0.4-0.6,0.2-0.8C15.2,27,14.8,26.9,14.5,27.1z"/>
	<path d="M56.1,32.1c-5.4,0-9.7-4.4-9.7-9.7c0-1.3,0.3-2.6,0.8-3.8c0,0,0-0.1,0-0.1l0.1-0.1c0,0,0,0,0,0c0.2-0.4,0.4-0.8,0.7-1.2
		c0,0,0,0,0,0l8.1-14.5L64.3,17c0,0,0,0,0,0c0.2,0.4,0.5,0.8,0.7,1.2c0,0,0,0,0,0.1l0.1,0.1c0,0,0,0.1,0,0.1
		c0.5,1.2,0.8,2.5,0.8,3.8C65.9,27.7,61.5,32.1,56.1,32.1z M66.7,18.1c0-0.1-0.1-0.3-0.1-0.4l-0.2-0.3c-0.2-0.5-0.5-0.9-0.7-1.3
		L56.9,0.4C56.7,0.2,56.4,0,56.1,0c-0.3,0-0.6,0.2-0.7,0.4l-8.8,15.8c-0.3,0.4-0.5,0.9-0.7,1.3l-0.2,0.3c-0.1,0.1-0.1,0.2-0.1,0.3
		c-0.5,1.3-0.8,2.8-0.8,4.2c0,6.3,5.1,11.3,11.3,11.3s11.3-5.1,11.3-11.3C67.5,20.9,67.2,19.5,66.7,18.1z"/>
	<path d="M59.3,27.1c-0.9,0.6-2,1-3.2,1c-1,0-2-0.3-2.9-0.8c-0.9-0.5-1.7-1.3-2.2-2.3c-0.5-0.9-0.7-2-0.6-3.1c0-0.3-0.2-0.6-0.6-0.6
		c-0.3,0-0.6,0.2-0.6,0.6c-0.1,1.3,0.2,2.5,0.8,3.7c0.6,1.2,1.5,2.1,2.7,2.8c1.1,0.6,2.3,0.9,3.5,0.9c1.4,0,2.7-0.4,3.9-1.2
		c0.3-0.2,0.4-0.6,0.2-0.8C60,27,59.6,26.9,59.3,27.1z"/>
	<path d="M33.7,65.9c-5.4,0-9.7-4.4-9.7-9.7c0-1.3,0.3-2.6,0.8-3.8c0,0,0-0.1,0-0.1l0.1-0.1c0,0,0,0,0,0c0.2-0.4,0.4-0.8,0.7-1.2
		c0,0,0,0,0,0l8.1-14.5l8.1,14.5c0,0,0,0,0,0c0.2,0.4,0.5,0.8,0.7,1.2c0,0,0,0,0,0l0.1,0.1c0,0,0,0.1,0,0.1c0.5,1.2,0.8,2.5,0.8,3.8
		C43.5,61.5,39.1,65.9,33.7,65.9z M44.1,51.6L44,51.3c-0.2-0.5-0.5-0.9-0.7-1.3l-8.8-15.8c-0.1-0.3-0.4-0.4-0.7-0.4S33.2,34,33,34.2
		L24.2,50c-0.3,0.4-0.5,0.9-0.7,1.3l-0.2,0.3c-0.1,0.1-0.1,0.2-0.1,0.3c-0.5,1.3-0.8,2.8-0.8,4.2c0,6.3,5.1,11.3,11.3,11.3
		s11.3-5.1,11.3-11.3c0-1.5-0.3-2.9-0.8-4.2C44.3,51.8,44.2,51.7,44.1,51.6z"/>
	<path d="M36.9,60.9c-0.9,0.6-2,1-3.2,1c-1,0-2-0.3-2.9-0.8c-0.9-0.5-1.7-1.3-2.2-2.3c-0.5-0.9-0.7-2-0.6-3.1c0-0.3-0.2-0.6-0.6-0.6
		c-0.3,0-0.6,0.2-0.6,0.6c-0.1,1.3,0.2,2.6,0.8,3.7c0.6,1.2,1.5,2.1,2.7,2.8c1.1,0.6,2.3,0.9,3.5,0.9c1.4,0,2.7-0.4,3.9-1.2
		c0.3-0.2,0.4-0.6,0.2-0.8C37.6,60.8,37.2,60.7,36.9,60.9z"/>
</g>
</svg>
