<?xml version="1.0" encoding="utf-8"?>
<!-- Generator: Adobe Illustrator 19.0.0, SVG Export Plug-In . SVG Version: 6.00 Build 0)  -->
<svg version="1.1" id="Layer_1" xmlns="http://www.w3.org/2000/svg" xmlns:xlink="http://www.w3.org/1999/xlink" x="0px" y="0px"
	 viewBox="0 0 70.3 63.3" style="enable-background:new 0 0 70.3 63.3;fill: #fff;" xml:space="preserve">
<path d="M32.5,27c0-1.5,1.2-2.6,2.6-2.6s2.6,1.2,2.6,2.6c0,1.5-1.2,2.6-2.6,2.6S32.5,28.4,32.5,27z M37.5,37.5c0.1,0,0.2,0,0.3-0.1
	c0.3-0.2,0.4-0.5,0.2-0.8l-2.7-5c1.1,0,2.1-0.5,2.9-1.2H45c0.3,0,0.6-0.3,0.6-0.6s-0.3-0.6-0.6-0.6h-5.8c0.4-0.7,0.6-1.5,0.6-2.3
	c0-0.6-0.1-1.1-0.3-1.6l3.5-5.1c0.2-0.3,0.1-0.6-0.1-0.8c-0.3-0.2-0.6-0.1-0.8,0.1l-3.2,4.6c-0.6-0.8-1.5-1.4-2.5-1.7l-3.1-5.8
	c-0.2-0.3-0.5-0.4-0.8-0.2c-0.3,0.2-0.4,0.5-0.2,0.8l2.7,5c-1.1,0-2.1,0.5-2.9,1.2h-6.7c-0.3,0-0.6,0.3-0.6,0.6
	c0,0.3,0.3,0.6,0.6,0.6h5.8c-0.4,0.7-0.6,1.5-0.6,2.3c0,0.6,0.1,1.1,0.3,1.6l-3.5,5.1c-0.2,0.3-0.1,0.6,0.1,0.8
	c0.1,0.1,0.2,0.1,0.3,0.1c0.2,0,0.4-0.1,0.5-0.3l3.2-4.6c0.6,0.8,1.5,1.4,2.5,1.7l3.1,5.8C37.1,37.4,37.3,37.5,37.5,37.5z M68,51.6
	h-5.9v2.3h-1.2v-9.4h1.2v2.3H68V51.6z M59.8,53.9h-1.2v-2.3H38.7l3.5,2.3h1.2c1.3,0,2.3,1.1,2.3,2.3s-1.1,2.3-2.3,2.3H11.7v2.3h-1.2
	v-9.4h1.2v2.3h21.1l-3.5-2.3H27c-1.3,0-2.3-1.1-2.3-2.3c0-1.3,1.1-2.3,2.3-2.3h31.6v-2.3h1.2V53.9z M9.4,60.9H8.2v-2.3H2.3v-4.7h5.9
	v-2.3h1.2V60.9z M30.5,41.4c1.5,0.5,3.1,0.7,4.7,0.7s3.2-0.3,4.7-0.7v3.1h-9.4V41.4z M22,27c0-7.3,5.9-13.2,13.2-13.2
	S48.3,19.7,48.3,27c0,7.3-5.9,13.2-13.2,13.2S22,34.2,22,27z M30.5,9.4h9.4v3.1c-1.5-0.5-3.1-0.7-4.7-0.7s-3.2,0.3-4.7,0.7V9.4z
	 M28.1,4.7h7V3.5h-6.1l1.2-1.2H40l2.1,2.1V7H28.1V4.7z M64.5,44.5c0-1.3-1.1-2.3-2.3-2.3h-3.5c-1.3,0-2.3,1.1-2.3,2.3H42.2v-4.1
	c4.9-2.5,8.2-7.6,8.2-13.5c0-5.9-3.3-11-8.2-13.5V9.4h2.3V3.5L41,0H29.3l-3.5,3.5v5.9h2.3v4.1c-4.9,2.5-8.2,7.6-8.2,13.5
	c0,5.9,3.3,11,8.2,13.5v4.1H27c-2.6,0-4.7,2.1-4.7,4.7c0,0.9,0.3,1.7,0.7,2.3h-8.9c0-1.3-1.1-2.3-2.3-2.3H8.2
	c-1.3,0-2.3,1.1-2.3,2.3H0v9.4h5.9c0,1.3,1.1,2.3,2.3,2.3h3.5c1.3,0,2.3-1.1,2.3-2.3h29.3c2.6,0,4.7-2.1,4.7-4.7
	c0-0.9-0.3-1.7-0.7-2.3h8.9c0,1.3,1.1,2.3,2.3,2.3h3.5c1.3,0,2.3-1.1,2.3-2.3h5.9v-9.4H64.5z"/>
</svg>
