<?xml version="1.0" encoding="utf-8"?>
<!-- Generator: Adobe Illustrator 19.0.0, SVG Export Plug-In . SVG Version: 6.00 Build 0)  -->
<svg version="1.1" id="Layer_1" xmlns="http://www.w3.org/2000/svg" xmlns:xlink="http://www.w3.org/1999/xlink" x="0px" y="0px"
	 viewBox="0 0 67.5 67.5" style="enable-background:new 0 0 67.5 67.5;" xml:space="preserve">
<path d="M12.1,40.7c-7.9-7.9-7.9-20.8,0-28.6c3.8-3.8,8.9-5.9,14.3-5.9c5.4,0,10.5,2.1,14.3,5.9c7.9,7.9,7.9,20.8,0,28.6
	c-3.8,3.8-8.9,5.9-14.3,5.9C21,46.6,15.9,44.6,12.1,40.7z M67.5,63.1L47.1,42.8c3.7-4.6,5.7-10.4,5.7-16.4c0-7-2.8-13.6-7.7-18.7
	C40.1,2.8,33.4,0,26.4,0C19.3,0,12.8,2.8,7.7,7.7C2.8,12.7,0,19.4,0,26.4C0,33.4,2.8,40,7.7,45.1c4.9,4.9,11.6,7.7,18.7,7.7
	c6,0,11.7-2,16.4-5.7l20.4,20.4L67.5,63.1z"/>
</svg>
