<svg id="Layer_1" data-name="Layer 1" xmlns="http://www.w3.org/2000/svg" viewBox="0 0 200 200"><defs><style>.cls-1{fill:#fff;}</style></defs><title>VeederIcon_ProbeFloatselection</title><path class="cls-1" d="M196.78,187.64l-14.9-14.9,5.93-5.93a5.91,5.91,0,0,0,0-8.36l-3.14-3.14a5.87,5.87,0,0,0-4.18-1.74h0a5.87,5.87,0,0,0-4.18,1.74l-1.43,1.43L158,139.87a5.71,5.71,0,0,0-8.09,0l-.45.45-31.63-31.63,6.39-6.39a4.68,4.68,0,0,0,0-6.61l-2.31-2.31a4.68,4.68,0,0,0-6.62,0l-6.39,6.39L47.54,38.41a5.79,5.79,0,0,0-.39-7.81l-26-26a5.87,5.87,0,0,0-8.28,0L4.09,13.38a5.87,5.87,0,0,0,0,8.28l26,26a5.84,5.84,0,0,0,8.28,0l.59-.58,61.32,61.32-6.39,6.38a4.68,4.68,0,0,0,0,6.62l2.31,2.31a4.7,4.7,0,0,0,6.61,0l6.39-6.39L140.83,149l-1.48,1.47a5.73,5.73,0,0,0,0,8.09l16.88,16.88-.41.41a5.89,5.89,0,0,0,0,8.36L159,187.3a5.91,5.91,0,0,0,8.36,0l5.93-5.93,14.9,14.9a2.89,2.89,0,0,0,4.07,0l4.56-4.56A2.89,2.89,0,0,0,196.78,187.64ZM8.27,17.56,17,8.78,43,34.71l-8.75,8.74Zm33.19,27L45.08,41l61.32,61.32-3.62,3.62ZM100.3,121.2a1.15,1.15,0,0,1-1.6,0l-2.31-2.31a1.13,1.13,0,0,1,0-1.6L117.8,95.88a1.13,1.13,0,0,1,1.6,0l2.31,2.31a1.15,1.15,0,0,1,.33.8,1.14,1.14,0,0,1-.33.8Zm11.4-6.39,3.62-3.62L147,142.82l-3.62,3.62ZM164,184a1.18,1.18,0,0,1-1.68,0l-3.14-3.14a1.18,1.18,0,0,1,0-1.68l3.75-3.75L142.7,155.17a1,1,0,0,1,0-1.41l10.55-10.55a1,1,0,0,1,1.41,0l20.22,20.21,4.77-4.77a1.15,1.15,0,0,1,.84-.35,1.16,1.16,0,0,1,.84.35l3.14,3.14a1.18,1.18,0,0,1,0,1.68Zm26.21,9.33-14.43-14.42,3.62-3.62,14.42,14.43Z"/></svg>