<svg id="Layer_1" data-name="Layer 1" xmlns="http://www.w3.org/2000/svg" viewBox="0 0 200 200"><defs><style>.cls-1,.cls-2,.cls-3,.cls-4{fill:none;stroke:#fff;stroke-miterlimit:10;}.cls-1{stroke-width:8px;}.cls-2{stroke-width:5px;}.cls-3{stroke-width:7px;}.cls-4{stroke-width:4px;}</style></defs><title>VeederIcon_Combat_CorrosionV2</title><path class="cls-1" d="M161.1,46.1,173.92,65a17.33,17.33,0,0,1,2.43,8.85V176.25a2.46,2.46,0,0,1-2.45,2.46H26.1a2.46,2.46,0,0,1-2.45-2.46V73.8A17.33,17.33,0,0,1,26.08,65L38.84,46.06a16.77,16.77,0,0,0,2.86-9.35V19.58a1.88,1.88,0,0,1,1.89-1.88H156.41a1.87,1.87,0,0,1,1.88,1.89l-.08,17.05A16.79,16.79,0,0,0,161.1,46.1Z"/><polyline class="cls-2" points="23.64 149.53 29.7 149.72 35.76 150.6 41.82 150.78 46.05 146.37 45.93 139.21 45.83 132.05 45.16 124.89"/><polygon class="cls-3" points="51.97 124.84 45.55 125.22 38.82 125.21 39.59 119.27 38.91 113.66 39.4 108.04 39.62 102.42 39.63 97.41 45.55 96.29 52.18 96.59 52.21 102.41 52.22 108.03 51.28 113.64 51.37 119.27 51.97 124.84"/><polygon class="cls-4" points="109.54 70.15 103.99 70.37 98.41 70.43 93.02 69.95 92.72 65.54 93.01 60.91 93.03 56.51 98.41 56.75 103.99 55.97 109.67 56.15 109.69 60.9 109.69 65.54 109.54 70.15"/><polygon class="cls-3" points="110.66 106.25 105.17 106.43 99.69 105.37 94.21 105.14 88.72 106.41 83.23 106.47 77.74 105.69 74.52 103.17 74.85 98.05 75.75 92.92 74.56 87.8 74.79 82.67 75.43 77.54 74.87 72.41 77.74 70.74 83.22 70.44 88.71 71.23 94.19 69.46 99.68 70.26 105.17 69.21 110.66 70.26 113.33 72.41 113.46 77.53 112.24 82.66 113.14 87.78 112.49 92.91 112.2 98.04 111.81 103.17 110.66 106.25"/><polygon class="cls-2" points="128.01 96.46 121.57 96.55 115.12 96 113.03 93.79 112.37 86.33 112.34 78.86 115.12 76.49 121.57 76.12 128.01 76.29 130.11 78.86 130.73 86.33 130.61 93.79 128.01 96.46"/><polyline class="cls-1" points="85.38 178.71 86.28 172.27 85.29 165.84 85.82 159.41 85.7 152.97 85.97 146.53 85.31 140.09 85.79 133.65 85.88 127.22 86.53 120.78 85.19 114.33 85.92 107.96 91.41 107.46 96.99 107.44 102.97 107.53 102.92 114.32 102.1 120.75 101.93 127.19 102.1 133.63 102.21 140.06 102.31 146.5 102.93 152.94 102.14 159.38 102.02 165.82 102.76 172.26 103 178.71"/><polyline class="cls-4" points="176.35 90.69 169.77 90.1 163.19 90.75 156.6 90.4 150.01 90.48 143.43 90.3 136.83 90.73 130.22 90.41 130.27 82.05 136.82 82.48 143.41 81.61 150 82.11 156.58 81.76 163.17 81.74 169.76 81.68 176.35 81.8"/></svg>