<svg id="Layer_1" data-name="Layer 1" xmlns="http://www.w3.org/2000/svg" viewBox="0 0 200 200"><defs><style>.cls-1{fill:#fff;}</style></defs><title>VeederIcon_DEF</title><path class="cls-1" d="M72.32,112.91h55.36a6.12,6.12,0,0,0,6.11-6.11v-42a6.11,6.11,0,0,0-6.11-6.1H72.32a6.11,6.11,0,0,0-6.11,6.1v42A6.12,6.12,0,0,0,72.32,112.91Zm.82-47.32h53.72V106H73.14Z"/><path class="cls-1" d="M189.9,115.07l3.81-1.06L182.45,75.08,160.9,66.72l-2.5,6.45,18.45,7.16,1.4,4.39-4.55,1.39a9.71,9.71,0,0,0-6.47,6.5l-1.83,6a14.69,14.69,0,0,0-.25,7.56l.67,2.87a13.79,13.79,0,0,0,16.44,10.29l1.63-.37,5.8,18.16v33.88a5.59,5.59,0,0,1-11.17,0V143.33a10.17,10.17,0,0,0-10.15-10.16H153.82V25h9V2.88H37.2V25h9V133.17H31.64a10.17,10.17,0,0,0-10.16,10.16v27.72a5.59,5.59,0,0,1-11.17,0V137.17L16.11,119l1.63.37a13.79,13.79,0,0,0,16.44-10.29l.67-2.87a14.69,14.69,0,0,0-.25-7.56l-1.83-6a9.71,9.71,0,0,0-6.47-6.5l-4.55-1.39,1.4-4.39L41.6,73.17l-2.5-6.45L17.55,75.08,6.29,114l3.81,1.06-6.72,21v35a12.51,12.51,0,0,0,25,0V143.33a3.24,3.24,0,0,1,3.24-3.23H46.18v57H153.82v-57h14.55a3.23,3.23,0,0,1,3.23,3.23v27.72a12.51,12.51,0,1,0,25,0v-35Zm-9.17-2.44a6.85,6.85,0,0,1-8.17-5.11l-.66-2.87a7.68,7.68,0,0,1,.12-4l1.84-6.06a2.82,2.82,0,0,1,1.87-1.88l4.49-1.37,5.6,20.12Zm-154.59-18L28,100.67a7.68,7.68,0,0,1,.12,4l-.66,2.87a6.85,6.85,0,0,1-8.17,5.11l-5.09-1.15,5.6-20.12,4.49,1.37A2.82,2.82,0,0,1,26.14,94.61Zm18-84.81H155.88v8.3H44.12ZM73.14,25h53.72V41.76H73.14Zm-6.93,0V48.69h67.58V25h10.8v96.71H55.41V25ZM55.41,187.89V131h89.18v56.92Z"/><path class="cls-1" d="M72.23,143.1H62.37v31.42h8.9q8.33,0,12.75-4.13t4.41-11.88q0-7.29-4.25-11.35T72.23,143.1ZM71.89,169H69V148.56h3.55q8.92,0,8.93,10.12Q81.51,169,71.89,169Z"/><polygon class="cls-1" points="94.94 174.52 113.04 174.52 113.04 169.01 101.61 169.01 101.61 160.91 112.24 160.91 112.24 155.46 101.61 155.46 101.61 148.56 113.04 148.56 113.04 143.1 94.94 143.1 94.94 174.52"/><polygon class="cls-1" points="119.61 174.52 126.17 174.52 126.17 162.1 136.82 162.1 136.82 156.66 126.17 156.66 126.17 148.56 137.62 148.56 137.62 143.1 119.61 143.1 119.61 174.52"/></svg>