<svg id="Layer_1" data-name="Layer 1" xmlns="http://www.w3.org/2000/svg" viewBox="0 0 200 200"><defs><style>.cls-1{fill:#fff;}</style></defs><title>VeederIcon_Combat_CorrosionV2</title><path class="cls-1" d="M190.05,59.29,175,37.11a14.73,14.73,0,0,1-2.56-8.38l.09-19.85A6.86,6.86,0,0,0,165.67,2H34.32a6.86,6.86,0,0,0-6.85,6.85V28.79a14.74,14.74,0,0,1-2.53,8.28l-14.86,22-.14.22A24.82,24.82,0,0,0,6.45,72V191.24A7.53,7.53,0,0,0,14,198.76H186a7.53,7.53,0,0,0,7.52-7.52V72A24.73,24.73,0,0,0,190.05,59.29ZM111.18,88.35l-.68,5.36-.36,6.17-.41,5.4-.18.49-3.2.1-5.94-1.15-7.54-.35-6.49,1.5-5.64.06-5-.72-1.19-.93.23-3.59,1.16-6.57-1.45-6.23.23-5.25.79-6.28-.41-3.82.2-.12,5-.27,6.93,1,6.38-2.06,6.12.89,6.31-1.2,4.63.88.85.69.08,3.54-1.49,6.27ZM87.56,179l.59-7.18L88,164.19l.32-7.69-.76-7.42L88.1,142l.12-7.56.81-8-1.56-7.47.33-2.9,2.42-.22,6.2,0,2.35,0,0,3-.91,7.22-.24,8v.12l.2,7.58.24,15,.7,7.36-.86,7-.18,8.29.87,7.64.1,2.49H88.33l.41-2.87Zm6.3-116.61.33-5.24V54.28l4,.18,6.52-.91,4.16.13,0,8.6,0,.76L106,62.48l-6.49,1.24-5.64-.82Zm24.55,20.06,1.07-4.5,5.67-.32,6,.16,1,1.26.63,7.64L132.75,94l-1.39,1.42-6.15.09L119,95l-.36-.38v0l.82-6.44Zm20.08,1.72,4.46.29,7.65-1,7.58.56,7.75-.41,15.24-.09,3.06.06v5.35l-3-.27-7.71.76L166,89h-.07l-7.65.1-7.78-.21-7.65.5-4.22-.21,0-2.69ZM15.77,163.2l2.13.07,6.9,1,8.67.28,6.65-6.94-.28-17.85-.37-4,9.12-.54-1.13-10.56-.1-6,1.09-6.52-.07-17.53-12.05-.56-10.67,2,0,9.13-.25,6.38-.6,6.86.78,6.45-1.43,11h9.52l.37,4,.24,15.37-3.2,3.33-5.6-.17-6.89-1-2.8-.1V72a15.54,15.54,0,0,1,2.11-7.81L32.66,42.28a24,24,0,0,0,4.12-13.49V11.31H163.19l-.07,17.38a23.88,23.88,0,0,0,4.17,13.66l14.83,21.82a15.47,15.47,0,0,1,2.11,7.8v6.9l-3-.05-15.33.09-7.63.4-7.76-.58-7.68,1-4.69-.31-.22-2.7L134,72l-8.95-.24-5.42.31-.09-3.71L114.17,64l-.61-.12,0-1.57,0-13.18-9.06-.29L98,49.79l-8.47-.39,0,7.48-.34,5.49.11,1.54-2.8.91L80.65,64l-7.77.42-6.47,3.78.89,8.12-.7,5.5-.31,6.86,1.33,5.7-.91,5.14-.58,8.56,6.3,4.92,6.25.9-.63,5.5,1.57,7.54-.69,6.78-.13,7.75-.58,7.77.78,7.57-.31,7.3.14,7.41-.64,7.8,1.13,7.35-.39,2.81H15.77ZM39.31,125l.27,2.61-3.08.19H33.41l.37-2.83-.8-6.62.53-6.12.26-6.75v-2.61l3.12-.58,3.37.15,0,9.08-1.1,6.57ZM108,189.45l-.12-3-.85-7.56.13-6.94,1-7.76-.76-7.82-.24-14.85-.19-7.38.19-7.13.92-7.26,0-5.76,7.2-.24,2.5-6.68.48-6.26,6.75.58,8.85-.13,4.68-4.8,0-2.63,4.33.21,7.7-.5,7.66.2,7.58-.09,7.77.4,7.62-.74,3,.27v95.89Z"/></svg>