<?xml version="1.0" encoding="utf-8"?>
<!-- Generator: Adobe Illustrator 19.0.0, SVG Export Plug-In . SVG Version: 6.00 Build 0)  -->
<svg version="1.1" id="Layer_1" xmlns="http://www.w3.org/2000/svg" xmlns:xlink="http://www.w3.org/1999/xlink" x="0px" y="0px"
	 viewBox="0 0 68.7 75" style="enable-background:new 0 0 68.7 75;fill: #fff;" xml:space="preserve">
<g>
	<path d="M3.1,31.3h50V3.1h-50V31.3z M54.7,34.4H1.6c-0.9,0-1.6-0.7-1.6-1.6V1.6C0,0.7,0.7,0,1.6,0h53.1c0.9,0,1.6,0.7,1.6,1.6v31.3
		C56.3,33.7,55.6,34.4,54.7,34.4z"/>
	<path d="M9.4,21.9h37.5V9.4H9.4V21.9z M48.4,25H7.8c-0.9,0-1.6-0.7-1.6-1.6V7.8c0-0.9,0.7-1.6,1.6-1.6h40.6c0.9,0,1.6,0.7,1.6,1.6
		v15.6C50,24.3,49.3,25,48.4,25z"/>
	<path d="M9.4,71.9h37.5V34.4H9.4V71.9z M48.4,75H7.8c-0.9,0-1.6-0.7-1.6-1.6V32.8c0-0.9,0.7-1.6,1.6-1.6h40.6
		c0.9,0,1.6,0.7,1.6,1.6v40.6C50,74.3,49.3,75,48.4,75z"/>
	<path d="M20.3,23.4c-0.9,0-1.6-0.7-1.6-1.6v-3.1c0-0.9,0.7-1.6,1.6-1.6c0.9,0,1.6,0.7,1.6,1.6v3.1C21.9,22.7,21.2,23.4,20.3,23.4z"
		/>
	<path d="M61.1,71.9h-0.4c-4.2,0-7.6-3.4-7.6-7.6V46.9c0-1.7-1.4-3.1-3.1-3.1c-0.9,0-1.6-0.7-1.6-1.6c0-0.9,0.7-1.6,1.6-1.6
		c3.4,0,6.3,2.8,6.3,6.3v17.4c0,2.5,2,4.5,4.5,4.5h0.4c2.5,0,4.5-2,4.5-4.5V22.5l-4.9-4.9c-0.6-0.6-0.6-1.6,0-2.2
		c0.6-0.6,1.6-0.6,2.2,0l5.3,5.3c0.3,0.3,0.5,0.7,0.5,1.1v42.4C68.7,68.4,65.3,71.9,61.1,71.9L61.1,71.9z"/>
</g>
</svg>
