<?xml version="1.0" encoding="utf-8"?>
<!-- Generator: Adobe Illustrator 19.0.0, SVG Export Plug-In . SVG Version: 6.00 Build 0)  -->
<svg version="1.1" id="Layer_1" xmlns="http://www.w3.org/2000/svg" xmlns:xlink="http://www.w3.org/1999/xlink" x="0px" y="0px"
	 viewBox="0 0 62.4 44.6" style="enable-background:new 0 0 62.4 44.6;fill: #fff;" xml:space="preserve">
<g>
	<path d="M31.4,15.9c-3.5,0-6.4,2.9-6.4,6.4s2.9,6.4,6.4,6.4c3.5,0,6.4-2.9,6.4-6.4S34.9,15.9,31.4,15.9z M31.4,30.9
		c-4.7,0-8.6-3.9-8.6-8.6s3.9-8.6,8.6-8.6c4.7,0,8.6,3.9,8.6,8.6S36.1,30.9,31.4,30.9z"/>
	<path d="M34.8,23.2c-0.6,0-1.1-0.5-1.1-1.1c0-1.3-1-2.3-2.3-2.3c-0.7,0-1.2,0.2-1.6,0.8c-0.4,0.4-1.1,0.5-1.6,0.1
		c-0.4-0.4-0.5-1.1-0.1-1.6c0.8-0.9,2.1-1.5,3.3-1.5c2.5,0,4.5,2,4.5,4.5C35.9,22.8,35.4,23.2,34.8,23.2z"/>
	<path d="M42.1,34.1c-0.3,0-0.6-0.1-0.8-0.3c-0.4-0.4-0.4-1.1,0-1.6c5.5-5.5,5.5-14.4,0-19.9c-0.4-0.5-0.4-1.1,0-1.6
		c0.4-0.4,1.1-0.4,1.6,0c6.4,6.4,6.4,16.7,0,23.1C42.7,34,42.4,34.1,42.1,34.1z"/>
	<path d="M47.3,39.3c-0.3,0-0.6-0.1-0.8-0.3c-0.5-0.4-0.5-1.1,0-1.6c8.3-8.3,8.3-21.9,0-30.3C46,6.7,46,6,46.5,5.6
		c0.4-0.5,1.1-0.5,1.6,0c9.3,9.1,9.3,24.1,0.1,33.4C47.9,39.2,47.6,39.3,47.3,39.3z"/>
	<path d="M52.5,44.6c-0.3,0-0.6-0.1-0.8-0.3c-0.5-0.4-0.5-1.1,0-1.6C63,31.5,63,13.2,51.7,1.9c-0.5-0.4-0.5-1.1,0-1.6
		c0.4-0.5,1.1-0.5,1.6,0c12.1,12.1,12.1,31.9,0,43.9C53.1,44.4,52.8,44.6,52.5,44.6z"/>
	<path d="M20.4,34.1c-0.3,0-0.6-0.1-0.8-0.3c-6.4-6.4-6.4-16.7,0-23.1c0.4-0.4,1.1-0.4,1.6,0c0.4,0.4,0.4,1.1,0,1.6
		c-5.5,5.5-5.5,14.4,0,19.9c0.4,0.5,0.4,1.1,0,1.6C21,34,20.7,34.1,20.4,34.1z"/>
	<path d="M15.2,39.3c-0.3,0-0.6-0.1-0.8-0.3c-9.2-9.3-9.2-24.3,0-33.5c0.4-0.4,1.1-0.4,1.6,0c0.4,0.5,0.4,1.1,0,1.6
		c-8.3,8.3-8.3,21.9,0,30.3c0.4,0.5,0.4,1.1,0,1.6C15.8,39.2,15.5,39.3,15.2,39.3z"/>
	<path d="M9.9,44.6c-0.3,0-0.6-0.1-0.8-0.3C-3,32.1-3,12.4,9.1,0.3c0.4-0.5,1.1-0.5,1.6,0c0.4,0.4,0.4,1.1,0,1.6
		c-11.3,11.3-11.3,29.6,0,40.8c0.4,0.4,0.4,1.1,0,1.6C10.5,44.4,10.2,44.6,9.9,44.6z"/>
</g>
</svg>
